<svg width="870" height="741" viewBox="0 0 870 741" fill="none" xmlns="http://www.w3.org/2000/svg">
<path d="M359 1H1C8.46521 26.3412 16.1825 35.5912 35 45H359V1Z" fill="white"/>
<path d="M388 72H138V117H315C315 117 302 589 315 621C328 653 342.771 656.724 359 664H716V621H359V117H432V45H646V1H388V72Z" fill="white"/>
<path d="M460 72V117H716V72H460Z" fill="white"/>
<path d="M602 451V408H815C840.176 415.241 848.246 426.526 859 451V621C862.904 626.427 837.529 659.926 815 664V451H602Z" fill="white"/>
<path d="M743 694H388C395.199 710.045 401.654 719.505 432 740L743 735C764.713 726.193 775.106 718.648 786 694V479H602V521H743V694Z" fill="white"/>
<path d="M432 593H388V145H432V214H743C768.717 228.359 775.689 238.44 786 257H432V593Z" fill="white"/>
<path d="M869 330H460V287H815C852.18 286.394 863.454 296.402 869 330Z" fill="white"/>
<path d="M359 1H1C8.46521 26.3412 16.1825 35.5912 35 45H359V1Z" stroke="white"/>
<path d="M388 72H138V117H315C315 117 302 589 315 621C328 653 342.771 656.724 359 664H716V621H359V117H432V45H646V1H388V72Z" stroke="white"/>
<path d="M460 72V117H716V72H460Z" stroke="white"/>
<path d="M602 451V408H815C840.176 415.241 848.246 426.526 859 451V621C862.904 626.427 837.529 659.926 815 664V451H602Z" stroke="white"/>
<path d="M743 694H388C395.199 710.045 401.654 719.505 432 740L743 735C764.713 726.193 775.106 718.648 786 694V479H602V521H743V694Z" stroke="white"/>
<path d="M432 593H388V145H432V214H743C768.717 228.359 775.689 238.44 786 257H432V593Z" stroke="white"/>
<path d="M869 330H460V287H815C852.18 286.394 863.454 296.402 869 330Z" stroke="white"/>
</svg>
